<?xml version="1.0" encoding="utf-8"?>
<!-- Generator: Adobe Illustrator 16.0.4, SVG Export Plug-In . SVG Version: 6.00 Build 0)  -->
<!DOCTYPE svg PUBLIC "-//W3C//DTD SVG 1.1//EN" "http://www.w3.org/Graphics/SVG/1.1/DTD/svg11.dtd">
<svg version="1.1" id="cameraIcon" xmlns="http://www.w3.org/2000/svg" xmlns:xlink="http://www.w3.org/1999/xlink" x="0px" y="0px"
	 width="512px" height="512px" viewBox="0 0 512 512" enable-background="new 0 0 512 512" xml:space="preserve">
<path d="M152,304c0,57.438,46.562,104,104,104c57.438,0,104-46.562,104-104c0-57.438-46.562-104-104-104
	C198.562,200,152,246.562,152,304z M480,128H368c-8-32-16-64-48-64H192c-32,0-40,32-48,64H32c-17.6,0-32,14.4-32,32v288
	c0,17.6,14.4,32,32,32h448c17.6,0,32-14.4,32-32V160C512,142.4,497.6,128,480,128z M256,446c-78.425,0-142-63.574-142-142
	c0-78.425,63.575-142,142-142c78.426,0,142,63.575,142,142C398,382.426,334.427,446,256,446z M480,224h-64v-32h64V224z"/>
</svg>
