<?xml version="1.0" encoding="iso-8859-1"?>
<!-- Generator: Adobe Illustrator 18.0.0, SVG Export Plug-In . SVG Version: 6.00 Build 0)  -->
<!DOCTYPE svg PUBLIC "-//W3C//DTD SVG 1.1//EN" "http://www.w3.org/Graphics/SVG/1.1/DTD/svg11.dtd">
<svg version="1.1" id="Capa_1" xmlns="http://www.w3.org/2000/svg" xmlns:xlink="http://www.w3.org/1999/xlink" x="0px" y="0px"
	 viewBox="0 0 407.484 407.484" style="enable-background:new 0 0 407.484 407.484;" xml:space="preserve">
<path d="M378.939,16.564H28.544C12.805,16.564,0,29.369,0,45.108v219.985c0,15.739,12.805,28.544,28.544,28.544h131.46
	l-7.197,33.431h-24.994c-3.723,0-7.278,1.546-9.818,4.268l-34.512,37c-3.646,3.909-4.627,9.608-2.495,14.51
	c2.131,4.902,6.967,8.073,12.313,8.073h220.885c0.006-0.001,0.015-0.001,0.02,0c7.415,0,13.427-6.011,13.427-13.426
	c0-3.766-1.55-7.168-4.047-9.606l-34.094-36.551c-2.54-2.723-6.096-4.268-9.818-4.268h-24.994l-7.197-33.431h131.459
	c15.74,0,28.545-12.805,28.545-28.544V45.108C407.484,29.369,394.68,16.564,378.939,16.564z M371.242,259.737h-335V50.465h335
	V259.737z"/>
<g>
</g>
<g>
</g>
<g>
</g>
<g>
</g>
<g>
</g>
<g>
</g>
<g>
</g>
<g>
</g>
<g>
</g>
<g>
</g>
<g>
</g>
<g>
</g>
<g>
</g>
<g>
</g>
<g>
</g>
</svg>
