<?xml version="1.0" encoding="UTF-8" standalone="no"?>
<!-- Generator: Adobe Illustrator 16.0.0, SVG Export Plug-In . SVG Version: 6.00 Build 0)  -->

<svg
   xmlns:dc="http://purl.org/dc/elements/1.1/"
   xmlns:cc="http://creativecommons.org/ns#"
   xmlns:rdf="http://www.w3.org/1999/02/22-rdf-syntax-ns#"
   xmlns:svg="http://www.w3.org/2000/svg"
   xmlns="http://www.w3.org/2000/svg"
   xmlns:sodipodi="http://sodipodi.sourceforge.net/DTD/sodipodi-0.dtd"
   xmlns:inkscape="http://www.inkscape.org/namespaces/inkscape"
   version="1.1"
   id="user"
   x="0px"
   y="0px"
   width="682.66998"
   height="512"
   viewBox="0 0 682.66998 512"
   xml:space="preserve"
   inkscape:version="0.48.5 r10040"
   sodipodi:docname="user.svg"><metadata
     id="metadata15"><rdf:RDF><cc:Work
         rdf:about=""><dc:format>image/svg+xml</dc:format><dc:type
           rdf:resource="http://purl.org/dc/dcmitype/StillImage" /></cc:Work></rdf:RDF></metadata><defs
     id="defs13" /><sodipodi:namedview
     pagecolor="#ffffff"
     bordercolor="#666666"
     borderopacity="1"
     objecttolerance="10"
     gridtolerance="10"
     guidetolerance="10"
     inkscape:pageopacity="0"
     inkscape:pageshadow="2"
     inkscape:window-width="2818"
     inkscape:window-height="1579"
     id="namedview11"
     showgrid="false"
     inkscape:zoom="2"
     inkscape:cx="260.33898"
     inkscape:cy="256"
     inkscape:window-x="266"
     inkscape:window-y="193"
     inkscape:window-maximized="0"
     inkscape:current-layer="user" /><rect
     x="0"
     y="0"
     width="682.66998"
     height="512"
     id="rect5"
     style="fill:#000000" /><g
     id="g3"
     transform="translate(85.33,0)"><path
       style="fill:#93b5ff"
       d="m 256.001,268.089 c 50.664,0 91.74,-48.075 91.74,-107.378 0,-82.237 -41.074,-107.377 -91.74,-107.377 -50.668,0 -91.74,25.14 -91.74,107.377 0,59.303 41.072,107.378 91.74,107.378 z"
       id="path7"
       inkscape:connector-curvature="0" /><path
       style="fill:#93b5ff"
       d="M 458.581,426.135 412.298,321.872 c -2.117,-4.771 -5.836,-8.727 -10.465,-11.138 l -71.83,-37.391 c -1.584,-0.824 -3.502,-0.663 -4.926,0.415 -20.316,15.366 -44.203,23.488 -69.076,23.488 -24.877,0 -48.762,-8.122 -69.078,-23.488 -1.428,-1.079 -3.346,-1.239 -4.93,-0.415 l -71.826,37.391 c -4.631,2.411 -8.346,6.366 -10.465,11.138 L 53.419,426.135 c -3.191,7.188 -2.537,15.412 1.75,22.005 4.285,6.591 11.537,10.526 19.4,10.526 H 437.43 c 7.863,0 15.117,-3.936 19.402,-10.527 4.284,-6.592 4.94,-14.819 1.749,-22.004 z"
       id="path9"
       inkscape:connector-curvature="0" /></g></svg>
