<?xml version="1.0" encoding="utf-8"?>
<!-- Generator: Adobe Illustrator 16.0.4, SVG Export Plug-In . SVG Version: 6.00 Build 0)  -->
<!DOCTYPE svg PUBLIC "-//W3C//DTD SVG 1.1//EN" "http://www.w3.org/Graphics/SVG/1.1/DTD/svg11.dtd">
<svg version="1.1" id="cameraIcon" xmlns="http://www.w3.org/2000/svg" xmlns:xlink="http://www.w3.org/1999/xlink" x="0px" y="0px"
	 width="100px" height="100px" viewBox="0 0 100 100" enable-background="new 0 0 100 100" xml:space="preserve">
<g id="Layer_8">
	<path d="M87.131,24.592H12.869c-1.307,0-2.369,1.061-2.369,2.37v49.771c0,1.309,1.063,2.369,2.369,2.369h74.262
		c1.309,0,2.369-1.061,2.369-2.369V26.962C89.5,25.653,88.439,24.592,87.131,24.592z M25.807,69.72c0,1.31-1.063,2.37-2.371,2.37
		h-3.852c-1.309,0-2.369-1.061-2.369-2.37V54.217c0-1.309,1.061-2.369,2.369-2.369h3.852c1.309,0,2.371,1.061,2.371,2.369V69.72z
		 M85.084,33.09c0,0.92-0.744,1.667-1.666,1.667h-10c-0.922,0-1.668-0.747-1.668-1.667v-2.985c0-0.921,0.746-1.668,1.668-1.668h10
		c0.922,0,1.666,0.747,1.666,1.668V33.09z M62.109,73.464c-9.818,0-17.777-7.958-17.777-17.774c0-9.818,7.959-17.776,17.777-17.776
		c9.815,0,17.772,7.958,17.772,17.776C79.883,65.506,71.926,73.464,62.109,73.464z M19.584,33.479c-1.309,0-2.369-1.062-2.369-2.37
		c0-1.309,1.061-2.37,2.369-2.37c1.311,0,2.371,1.061,2.371,2.37S20.895,33.479,19.584,33.479z M62.109,42.77
		c-7.256,0-13.135,5.88-13.135,13.132c0,7.256,5.879,13.136,13.135,13.136c7.252,0,13.133-5.88,13.133-13.136
		C75.242,48.649,69.361,42.77,62.109,42.77z M62.109,62.707c-3.76,0-6.805-3.046-6.805-6.805c0-3.756,3.045-6.802,6.805-6.802
		c3.756,0,6.801,3.046,6.801,6.802C68.91,59.661,65.865,62.707,62.109,62.707z M31.139,23.762H17.215v-2.864h13.924V23.762z"/>
</g>
</svg>
