<?xml version="1.0" encoding="utf-8"?>
<!-- Generator: Adobe Illustrator 16.0.4, SVG Export Plug-In . SVG Version: 6.00 Build 0)  -->
<!DOCTYPE svg PUBLIC "-//W3C//DTD SVG 1.1//EN" "http://www.w3.org/Graphics/SVG/1.1/DTD/svg11.dtd">
<svg version="1.1" id="micIcon" xmlns="http://www.w3.org/2000/svg" xmlns:xlink="http://www.w3.org/1999/xlink" x="0px" y="0px"
	 width="100px" height="100px" viewBox="0 0 100 100" enable-background="new 0 0 100 100" xml:space="preserve">
<g id="Layer_7">
	<path d="M23.869,16.973L8.274,31.791c-3.606-4.211-1.522-8.838,2.661-12.814C15.119,15.002,19.846,13.156,23.869,16.973z
		 M93.029,52.4c-4.307-2.833-10.174-4.785-15.326-3.627c-5.622,1.264-7.426,7.697-5.544,12.6c2.069,5.391,7.891,9.508,8.354,15.473
		c0.236,3.045-2.984,6.035-5.908,5.889c-1.937-0.098-3.682-1.575-5.176-3.254l0.103-0.1c1.737-2.482,0.286-5.146-2.148-7.709
		L35.158,34.928c0.355-3.066-0.357-6.492-2.649-8.904l-7.52-7.912L9.355,32.967l7.52,7.914c2.316,2.438,5.258,3.783,8.369,3.555
		l35.365,33.673c2.43,2.558,4.692,4.445,7.185,2.923l0.022-0.021c3.129,3.236,7.057,5.812,11.332,2.716
		c2.19-1.584,3.735-4.068,3.762-6.816c0.027-2.781-1.504-5.438-2.994-7.67c-2.979-4.465-9.441-11.342-4.333-16.699
		c3.925-4.115,12.362-0.615,16.211,1.914C93.084,55.303,94.32,53.248,93.029,52.4z"/>
</g>
</svg>
