<?xml version="1.0" encoding="iso-8859-1"?>
<!-- Generator: Adobe Illustrator 16.0.0, SVG Export Plug-In . SVG Version: 6.00 Build 0)  -->
<!DOCTYPE svg PUBLIC "-//W3C//DTD SVG 1.1//EN" "http://www.w3.org/Graphics/SVG/1.1/DTD/svg11.dtd">
<svg version="1.1" id="user" xmlns="http://www.w3.org/2000/svg" xmlns:xlink="http://www.w3.org/1999/xlink" x="0px" y="0px"
	 width="512px" height="512px" viewBox="0 0 512 512" style="enable-background:new 0 0 512 512;" xml:space="preserve">
<g>
	<path style="fill: #93b5ff" d="M256.001,268.089c50.664,0,91.74-48.075,91.74-107.378c0-82.237-41.074-107.377-91.74-107.377
		c-50.668,0-91.74,25.14-91.74,107.377C164.261,220.014,205.333,268.089,256.001,268.089z"/>
	<path style="fill: #93b5ff" d="M458.581,426.135l-46.283-104.263c-2.117-4.771-5.836-8.727-10.465-11.138l-71.83-37.391
		c-1.584-0.824-3.502-0.663-4.926,0.415c-20.316,15.366-44.203,23.488-69.076,23.488c-24.877,0-48.762-8.122-69.078-23.488
		c-1.428-1.079-3.346-1.239-4.93-0.415l-71.826,37.391c-4.631,2.411-8.346,6.366-10.465,11.138L53.419,426.135
		c-3.191,7.188-2.537,15.412,1.75,22.005c4.285,6.591,11.537,10.526,19.4,10.526h362.861c7.863,0,15.117-3.936,19.402-10.527
		C461.116,441.547,461.772,433.32,458.581,426.135z"/>
</g>
</svg>
